<svg width="152" height="152" viewBox="0 0 152 152" fill="none" xmlns="http://www.w3.org/2000/svg">
<path d="M152 0H0V152H152V0Z" fill="#ED3542"/>
<path d="M40.3917 101.028H83.3391V116.184C83.335 117.017 83.0015 117.814 82.4115 118.401C81.8215 118.989 81.0229 119.319 80.1902 119.32H43.7026C43.2678 119.32 42.8373 119.234 42.4356 119.068C42.0339 118.901 41.6689 118.657 41.3615 118.35C41.054 118.043 40.8101 117.678 40.6437 117.276C40.4774 116.874 40.3917 116.444 40.3917 116.009V101.028Z" fill="white"/>
<path d="M83.3391 35.1079H37.2559C36.2163 35.1079 35.2193 35.5209 34.4842 36.256C33.7492 36.9911 33.3362 37.9881 33.3362 39.0277V59.3764C33.3362 60.416 33.7492 61.413 34.4842 62.1481C35.2193 62.8831 36.2163 63.2961 37.2559 63.2961H49.496C49.7956 63.296 50.0915 63.3616 50.3629 63.4883C50.6343 63.6151 50.8746 63.7999 51.0668 64.0297C51.2589 64.2595 51.3983 64.5287 51.475 64.8182C51.5517 65.1078 51.5639 65.4107 51.5108 65.7055L47.6537 87.0237C47.4827 87.9677 47.0989 88.8605 46.5316 89.6342C45.9643 90.408 45.2283 91.0425 44.3794 91.4896L42.2889 92.5897C41.7132 92.8939 41.2314 93.3493 40.8953 93.9069C40.5591 94.4645 40.3814 95.1032 40.3813 95.7543V97.3483H83.3391V96.2037C83.3394 95.6696 83.1851 95.1468 82.8948 94.6984C82.6046 94.25 82.1907 93.8952 81.7033 93.6768C77.7104 91.8894 72.5572 90.7396 69.6043 90.183C68.9788 90.0637 68.423 89.7086 68.0519 89.1911C67.6808 88.6736 67.5228 88.0333 67.6105 87.4026L68.9876 77.4072H73.0798L74.6477 66.3927H70.6234L71.0337 63.2961H83.3391C91.4843 62.3763 96.4258 57.3668 96.4258 57.3668V40.1984C90.5305 35.722 83.3391 35.1079 83.3391 35.1079ZM82.2128 42.6077C82.2128 43.0235 82.0476 43.4223 81.7536 43.7164C81.4596 44.0104 81.0608 44.1756 80.6449 44.1756H40.086C39.6702 44.1756 39.2714 44.0104 38.9773 43.7164C38.6833 43.4223 38.5181 43.0235 38.5181 42.6077C38.5181 42.1919 38.6833 41.7931 38.9773 41.499C39.2714 41.205 39.6702 41.0398 40.086 41.0398H80.6449C81.0608 41.0398 81.4596 41.205 81.7536 41.499C82.0476 41.7931 82.2128 42.1919 82.2128 42.6077V42.6077Z" fill="white"/>
<path d="M100.301 40.1982H112.06C112.06 40.1982 114.514 40.5719 116.153 45.0378H133.585C134.331 45.0378 135.046 45.3341 135.573 45.8614C136.101 46.3887 136.397 47.1039 136.397 47.8496V49.4854C136.397 50.2312 136.101 50.9463 135.573 51.4736C135.046 52.001 134.331 52.2972 133.585 52.2972H115.753C115.753 52.2972 115.957 55.433 112.071 57.3772H100.301V40.1982Z" fill="white"/>
</svg>
